<?xml version="1.0" encoding="utf-8"?>
<!-- Generator: Adobe Illustrator 25.4.1, SVG Export Plug-In . SVG Version: 6.00 Build 0)  -->
<svg version="1.1" id="Layer_1" xmlns="http://www.w3.org/2000/svg" xmlns:xlink="http://www.w3.org/1999/xlink" x="0px" y="0px"
	 viewBox="0 0 400 132.1" style="enable-background:new 0 0 400 132.1;" xml:space="preserve">
<style type="text/css">
	.st0{fill:#F8ED33;}
	.st1{fill:#0E47A1;}
	.st2{fill:#1976D3;}
</style>
<g>
	<g>
		<path class="st0" d="M96.5,67.6L65.3,53.6l34.3-2l-35.3-2c0-0.1,0-0.3,0-0.4L97.4,36l-34.1,9.1c-0.1-0.2-0.2-0.4-0.3-0.7
			l27.4-22.9L60.7,41c-0.2-0.2-0.4-0.5-0.7-0.7l20-29.6L56.8,37.9c-0.2-0.1-0.4-0.2-0.6-0.3l9.3-32.9l-13,31.6
			c-0.3,0-0.5-0.1-0.8-0.1l-2-34.3l-1.9,34.3c-0.2,0-0.3,0-0.5,0.1L34.2,3.1l9.2,34.4c-0.2,0.1-0.5,0.2-0.7,0.3L19.9,10.6l19.5,29.7
			c-0.3,0.3-0.6,0.6-0.9,0.9L9.1,21.4l26.8,22.9L2.3,36.6l32.9,11.7c0,0.1,0,0.3-0.1,0.4L0,51.9l35.2,0.8c0,0.2,0.1,0.4,0.1,0.6
			L2.3,67.7l34.2-10.4c0.1,0.2,0.2,0.3,0.3,0.5L9.6,80.5l29.7-19.4c0.1,0.1,0.2,0.2,0.3,0.3L21.8,89.7l20.9-26.1
			c2.1,1.1,4.5,1.8,7,1.8c2.5,0,4.8-0.6,6.8-1.7L78,91.3L59.8,61.4c0.1,0,0.1-0.1,0.2-0.1l29,19.4L62.4,58c0.2-0.3,0.4-0.7,0.6-1.1
			L96.5,67.6z"/>
		<g>
			<path class="st1" d="M49.8,47.7v62c25.1,0,47.8,20.5,47.8,20.5L49.8,47.7z"/>
			<path class="st2" d="M2,130.3c0,0,22.8-20.5,47.8-20.5v-62L2,130.3z"/>
		</g>
	</g>
	<g>
		<g>
			<rect x="272.6" y="36.9" class="st2" width="37.5" height="9.9"/>
			<rect x="272.6" y="61.6" class="st2" width="37.5" height="9.9"/>
			<rect x="272.6" y="89" class="st2" width="37.5" height="9.9"/>
		</g>
		<polygon class="st2" points="217.6,89 217.6,36.9 206.3,36.9 206.3,89 206.3,98.8 206.3,98.9 242,98.9 242,89 		"/>
		<polygon class="st2" points="120.8,98.9 133.6,98.9 148.2,60.9 163.1,98.9 176.2,98.9 148.2,35.5 		"/>
		<polygon class="st2" points="400,98.9 378,66.8 398.1,36.9 383.7,36.9 370.6,56 357.5,36.9 343.2,36.9 363.3,66.8 341.2,98.9 
			356.3,98.9 370.6,77.7 384.9,98.9 		"/>
		<g>
			<path class="st2" d="M120.8,126.1v-10.9c0-0.2,0.1-0.3,0.3-0.3h7.4c0.2,0,0.3,0.1,0.3,0.3v1.5c0,0.2-0.1,0.3-0.3,0.3h-5.5v3h4.2
				c0.2,0,0.3,0.1,0.3,0.3v1.4c0,0.2-0.1,0.3-0.3,0.3h-4.2v4c0,0.2-0.1,0.3-0.3,0.3h-1.7C120.9,126.4,120.8,126.3,120.8,126.1z"/>
			<path class="st2" d="M134.9,115.2c0-0.1,0-0.2,0.1-0.2c0.1-0.1,0.2-0.1,0.3-0.1h1.6c0.2,0,0.3,0.1,0.3,0.3v9.1h4.5
				c0.1,0,0.2,0,0.2,0.1c0.1,0.1,0.1,0.1,0.1,0.3v1.4c0,0.2-0.1,0.3-0.3,0.3h-6.5c-0.2,0-0.3-0.1-0.3-0.3V115.2z"/>
			<path class="st2" d="M158.8,120.6c0,0.8-0.2,1.6-0.5,2.3c-0.3,0.7-0.7,1.3-1.3,1.9c-0.5,0.5-1.2,1-1.9,1.3
				c-0.7,0.3-1.5,0.5-2.3,0.5c-0.8,0-1.6-0.2-2.3-0.5c-0.7-0.3-1.3-0.7-1.9-1.3s-1-1.2-1.3-1.9c-0.3-0.7-0.5-1.5-0.5-2.3
				c0-0.8,0.2-1.6,0.5-2.3c0.3-0.7,0.7-1.3,1.3-1.9s1.2-1,1.9-1.3c0.7-0.3,1.5-0.5,2.3-0.5c0.8,0,1.6,0.2,2.3,0.5
				c0.7,0.3,1.4,0.7,1.9,1.3c0.5,0.5,1,1.2,1.3,1.9C158.6,119,158.8,119.8,158.8,120.6z M156.5,120.6c0-0.5-0.1-1-0.3-1.5
				c-0.2-0.5-0.4-0.9-0.8-1.2c-0.3-0.3-0.7-0.6-1.2-0.8c-0.4-0.2-0.9-0.3-1.5-0.3c-0.5,0-1,0.1-1.4,0.3c-0.4,0.2-0.8,0.5-1.2,0.8
				c-0.3,0.3-0.6,0.7-0.8,1.2c-0.2,0.5-0.3,0.9-0.3,1.5c0,0.5,0.1,1,0.3,1.5c0.2,0.5,0.4,0.9,0.8,1.2c0.3,0.3,0.7,0.6,1.2,0.8
				c0.4,0.2,0.9,0.3,1.4,0.3c0.5,0,1-0.1,1.5-0.3c0.4-0.2,0.8-0.5,1.2-0.8c0.3-0.3,0.6-0.7,0.8-1.2
				C156.4,121.6,156.5,121.1,156.5,120.6z"/>
			<path class="st2" d="M176.3,120.6c0,0.8-0.2,1.6-0.5,2.3c-0.3,0.7-0.7,1.3-1.3,1.9c-0.5,0.5-1.2,1-1.9,1.3
				c-0.7,0.3-1.5,0.5-2.3,0.5c-0.8,0-1.6-0.2-2.3-0.5c-0.7-0.3-1.3-0.7-1.9-1.3s-1-1.2-1.3-1.9c-0.3-0.7-0.5-1.5-0.5-2.3
				c0-0.8,0.2-1.6,0.5-2.3c0.3-0.7,0.7-1.3,1.3-1.9s1.2-1,1.9-1.3c0.7-0.3,1.5-0.5,2.3-0.5c0.8,0,1.6,0.2,2.3,0.5
				c0.7,0.3,1.4,0.7,1.9,1.3c0.5,0.5,1,1.2,1.3,1.9C176.2,119,176.3,119.8,176.3,120.6z M174.1,120.6c0-0.5-0.1-1-0.3-1.5
				c-0.2-0.5-0.4-0.9-0.8-1.2c-0.3-0.3-0.7-0.6-1.2-0.8c-0.4-0.2-0.9-0.3-1.5-0.3c-0.5,0-1,0.1-1.4,0.3c-0.4,0.2-0.8,0.5-1.2,0.8
				c-0.3,0.3-0.6,0.7-0.8,1.2c-0.2,0.5-0.3,0.9-0.3,1.5c0,0.5,0.1,1,0.3,1.5c0.2,0.5,0.4,0.9,0.8,1.2c0.3,0.3,0.7,0.6,1.2,0.8
				c0.4,0.2,0.9,0.3,1.4,0.3c0.5,0,1-0.1,1.5-0.3c0.4-0.2,0.8-0.5,1.2-0.8c0.3-0.3,0.6-0.7,0.8-1.2
				C174,121.6,174.1,121.1,174.1,120.6z"/>
			<path class="st2" d="M182.7,126.1v-10.9c0-0.1,0-0.2,0.1-0.2c0-0.1,0.1-0.1,0.2-0.1h4.9c0.5,0,1,0.1,1.5,0.3
				c0.4,0.2,0.8,0.5,1.2,0.8c0.3,0.4,0.6,0.8,0.8,1.2c0.2,0.5,0.3,0.9,0.3,1.4c0,0.7-0.2,1.3-0.5,1.8c-0.4,0.6-0.8,1-1.4,1.4
				l2.1,4.2c0,0.1,0,0.1,0,0.2c0,0.1-0.1,0.1-0.2,0.1h-2c-0.2,0-0.3-0.1-0.4-0.3l-1.8-3.7h-2.4v3.7c0,0.2-0.1,0.3-0.3,0.3H183
				C182.8,126.4,182.7,126.3,182.7,126.1z M187.4,116.9h-2.4v3.5h2.4c0.5,0,1-0.2,1.3-0.5c0.4-0.3,0.5-0.7,0.5-1.2
				c0-0.2,0-0.5-0.1-0.7c-0.1-0.2-0.2-0.4-0.4-0.6s-0.4-0.3-0.6-0.4C187.9,116.9,187.6,116.9,187.4,116.9z"/>
			<path class="st2" d="M197.4,126.1v-10.9c0-0.2,0.1-0.3,0.3-0.3h1.7c0.2,0,0.3,0.1,0.3,0.3v10.9c0,0.2-0.1,0.3-0.3,0.3h-1.7
				C197.5,126.4,197.4,126.3,197.4,126.1z"/>
			<path class="st2" d="M206.6,115.2c0-0.1,0-0.2,0.1-0.2c0.1-0.1,0.1-0.1,0.3-0.1h1.8c0.1,0,0.2,0,0.3,0.1c0.1,0,0.2,0.1,0.2,0.2
				l5.1,7.3v-7.3c0-0.1,0.1-0.2,0.1-0.2c0.1,0,0.1,0,0.2,0h1.6c0.1,0,0.2,0,0.2,0.1c0.1,0.1,0.1,0.1,0.1,0.2V126
				c0,0.2-0.1,0.3-0.4,0.3h-1.5c-0.1,0-0.2,0-0.3-0.1c-0.1,0-0.1-0.1-0.2-0.2l-5.4-7.8v7.7c0,0.2-0.1,0.3-0.3,0.3h-1.6
				c-0.2,0-0.3-0.1-0.3-0.3V115.2z"/>
			<path class="st2" d="M228.6,124.4c0.3,0,0.6,0,0.9-0.1c0.3-0.1,0.6-0.2,0.8-0.4v-2.4c0-0.2,0.1-0.3,0.3-0.3h1.4
				c0.1,0,0.1,0,0.2,0.1c0.1,0,0.1,0.1,0.1,0.2v3.5c0,0.1-0.1,0.2-0.2,0.3c-0.5,0.3-1,0.6-1.6,0.8c-0.6,0.2-1.3,0.3-2,0.3
				c-0.8,0-1.6-0.2-2.3-0.5c-0.7-0.3-1.4-0.7-1.9-1.3c-0.5-0.5-1-1.2-1.3-1.9c-0.3-0.7-0.5-1.5-0.5-2.3c0-0.8,0.2-1.6,0.5-2.3
				c0.3-0.7,0.7-1.3,1.3-1.9c0.5-0.5,1.2-1,1.9-1.3c0.7-0.3,1.5-0.5,2.3-0.5c0.7,0,1.3,0.1,1.9,0.3c0.6,0.2,1.1,0.5,1.6,0.9
				c0.1,0.1,0.1,0.1,0.1,0.2c0,0.1,0,0.1-0.1,0.2l-0.9,1.3c-0.1,0.1-0.1,0.1-0.2,0.1c-0.1,0-0.2,0-0.2-0.1c-0.3-0.2-0.6-0.4-1-0.6
				c-0.4-0.1-0.8-0.2-1.2-0.2c-0.5,0-1,0.1-1.5,0.3c-0.5,0.2-0.9,0.5-1.2,0.8c-0.3,0.3-0.6,0.7-0.8,1.2c-0.2,0.4-0.3,0.9-0.3,1.5
				c0,0.5,0.1,1,0.3,1.5c0.2,0.5,0.5,0.9,0.8,1.2c0.3,0.4,0.7,0.6,1.2,0.8C227.6,124.4,228.1,124.5,228.6,124.4z"/>
			<path class="st2" d="M256.9,126.2c-0.6-0.6-1.1-1.2-1.7-1.8l0,0c0.8-0.9,1.3-2.2,1.6-3.9l0-0.3h-2.2l0,0.2
				c-0.2,1-0.4,1.8-0.8,2.4c-0.4-0.5-0.9-1-1.4-1.6l-0.4-0.4c1.4-0.8,2.1-1.7,2.1-2.8c0-1.5-1.2-2.6-2.8-2.6c-2.1,0-3.1,1.5-3.1,2.9
				c0,0.7,0.3,1.4,0.7,2.1c-1.3,0.7-1.9,1.8-1.9,3.1c0,1.5,1.1,3.2,3.7,3.2c1.1,0,2.1-0.3,2.9-1c0.3,0.3,0.5,0.5,0.7,0.7l0.1,0.1
				h2.8L256.9,126.2z M250.1,121.8c1,1.1,1.8,2,2.3,2.6c-0.4,0.3-0.9,0.5-1.4,0.5c-1,0-1.7-0.7-1.7-1.6
				C249.3,122.7,249.6,122.3,250.1,121.8z M251.3,117.2c0.7,0,0.8,0.6,0.8,1c0,0.5-0.3,0.9-1.1,1.5c-0.4-0.5-0.6-0.9-0.6-1.4
				C250.4,117.7,250.7,117.2,251.3,117.2z"/>
			<path class="st2" d="M279.2,123.7c0.2-0.2,0.4-0.2,0.5,0l0.8,1.3c0.1,0.1,0.1,0.2,0.1,0.2s-0.1,0.1-0.2,0.2
				c-0.4,0.3-0.9,0.6-1.5,0.8c-0.5,0.2-1.2,0.3-1.9,0.3c-0.8,0-1.6-0.2-2.3-0.5c-0.7-0.3-1.4-0.7-1.9-1.3c-0.5-0.5-1-1.2-1.3-1.9
				c-0.3-0.7-0.5-1.5-0.5-2.3c0-0.8,0.2-1.6,0.5-2.3s0.7-1.3,1.3-1.9c0.5-0.5,1.2-1,1.9-1.3c0.7-0.3,1.5-0.5,2.3-0.5
				c0.7,0,1.3,0.1,1.9,0.3c0.5,0.2,1,0.5,1.5,0.8c0.1,0.1,0.1,0.1,0.1,0.2c0,0.1,0,0.1,0,0.2l-0.8,1.4c-0.1,0.1-0.2,0.1-0.4,0
				c-0.4-0.2-0.7-0.4-1.1-0.5c-0.3-0.1-0.7-0.2-1.2-0.2c-0.5,0-1,0.1-1.5,0.3c-0.4,0.2-0.8,0.5-1.2,0.8c-0.3,0.3-0.6,0.7-0.8,1.2
				c-0.2,0.5-0.3,0.9-0.3,1.5c0,0.5,0.1,1,0.3,1.5c0.2,0.5,0.4,0.9,0.8,1.2c0.3,0.3,0.7,0.6,1.2,0.8c0.4,0.2,0.9,0.3,1.5,0.3
				c0.4,0,0.8-0.1,1.2-0.2C278.6,124.1,278.9,123.9,279.2,123.7z"/>
			<path class="st2" d="M285.9,126.1l4.4-10.9c0.1-0.2,0.2-0.3,0.4-0.3h1.3c0.2,0,0.3,0.1,0.4,0.3l4.4,10.9c0.1,0.1,0.1,0.2,0,0.2
				c0,0.1-0.1,0.1-0.2,0.1h-1.7c-0.2,0-0.3-0.1-0.4-0.3l-0.7-1.9h-4.8l-0.7,1.9c-0.1,0.2-0.2,0.3-0.4,0.3h-1.7
				C285.9,126.4,285.8,126.3,285.9,126.1z M291.3,117.9l-1.7,4.4h3.3L291.3,117.9z"/>
			<path class="st2" d="M302.4,126.1v-10.9c0-0.1,0-0.2,0.1-0.2c0-0.1,0.1-0.1,0.2-0.1h4.9c0.5,0,1,0.1,1.5,0.3
				c0.4,0.2,0.8,0.5,1.2,0.8c0.3,0.4,0.6,0.8,0.8,1.2c0.2,0.5,0.3,0.9,0.3,1.4c0,0.7-0.2,1.3-0.5,1.8c-0.4,0.6-0.8,1-1.4,1.4
				l2.1,4.2c0,0.1,0,0.1,0,0.2c0,0.1-0.1,0.1-0.2,0.1h-2c-0.2,0-0.3-0.1-0.4-0.3l-1.8-3.7h-2.4v3.7c0,0.2-0.1,0.3-0.3,0.3h-1.7
				C302.5,126.4,302.4,126.3,302.4,126.1z M307.1,116.9h-2.4v3.5h2.4c0.5,0,1-0.2,1.3-0.5c0.4-0.3,0.5-0.7,0.5-1.2
				c0-0.2,0-0.5-0.1-0.7c-0.1-0.2-0.2-0.4-0.4-0.6c-0.2-0.2-0.4-0.3-0.6-0.4C307.6,116.9,307.3,116.9,307.1,116.9z"/>
			<path class="st2" d="M317.2,126.1v-10.9c0-0.2,0.1-0.3,0.3-0.3h4.5c0.5,0,1,0.1,1.4,0.3c0.4,0.2,0.8,0.5,1.1,0.8
				c0.3,0.3,0.6,0.7,0.7,1.2c0.2,0.4,0.3,0.9,0.3,1.4s-0.1,0.9-0.3,1.4c-0.2,0.4-0.4,0.8-0.8,1.2c-0.3,0.3-0.7,0.6-1.1,0.8
				c-0.4,0.2-0.9,0.3-1.4,0.3h-2.5v3.8c0,0.2-0.1,0.3-0.3,0.3h-1.6C317.3,126.4,317.2,126.3,317.2,126.1z M321.5,116.8h-2.1v3.4h2.1
				c0.5,0,0.9-0.2,1.3-0.5c0.3-0.3,0.5-0.7,0.5-1.2c0-0.2,0-0.5-0.1-0.7c-0.1-0.2-0.2-0.4-0.4-0.6c-0.2-0.2-0.3-0.3-0.6-0.4
				C322,116.9,321.8,116.8,321.5,116.8z"/>
			<path class="st2" d="M331.3,126.1v-10.9c0-0.2,0.1-0.3,0.3-0.3h7.6c0.2,0,0.3,0.1,0.3,0.3v1.5c0,0.2-0.1,0.3-0.3,0.3h-5.6v2.3
				h4.3c0.2,0,0.3,0.1,0.3,0.3v1.5c0,0.2-0.1,0.3-0.3,0.3h-4.3v2.8h5.8c0.2,0,0.3,0.1,0.3,0.3v1.5c0,0.2-0.1,0.3-0.3,0.3h-7.7
				C331.4,126.4,331.3,126.3,331.3,126.1z"/>
			<path class="st2" d="M345.6,115.2c0-0.1,0-0.2,0.1-0.2s0.1-0.1,0.3-0.1h1.8c0.1,0,0.2,0,0.3,0.1c0.1,0,0.2,0.1,0.2,0.2l5.1,7.3
				v-7.3c0-0.1,0.1-0.2,0.1-0.2c0.1,0,0.1,0,0.2,0h1.6c0.1,0,0.2,0,0.2,0.1c0.1,0.1,0.1,0.1,0.1,0.2V126c0,0.2-0.1,0.3-0.4,0.3h-1.5
				c-0.1,0-0.2,0-0.3-0.1c-0.1,0-0.1-0.1-0.2-0.2l-5.4-7.8v7.7c0,0.2-0.1,0.3-0.3,0.3h-1.6c-0.2,0-0.3-0.1-0.3-0.3V115.2z"/>
			<path class="st2" d="M361.3,116.6v-1.5c0-0.2,0.1-0.3,0.3-0.3h8.1c0.2,0,0.3,0.1,0.3,0.3v1.5c0,0.2-0.1,0.3-0.3,0.3h-3v9.1
				c0,0.2-0.1,0.3-0.3,0.3h-1.7c-0.2,0-0.3-0.1-0.3-0.3V117h-2.9C361.4,117,361.3,116.9,361.3,116.6z"/>
			<path class="st2" d="M376.1,126.1v-10.9c0-0.1,0-0.2,0.1-0.2c0-0.1,0.1-0.1,0.2-0.1h4.9c0.5,0,1,0.1,1.5,0.3
				c0.4,0.2,0.8,0.5,1.2,0.8c0.3,0.4,0.6,0.8,0.8,1.2s0.3,0.9,0.3,1.4c0,0.7-0.2,1.3-0.5,1.8c-0.4,0.6-0.8,1-1.4,1.4l2.1,4.2
				c0,0.1,0,0.1,0,0.2c0,0.1-0.1,0.1-0.2,0.1h-2c-0.2,0-0.3-0.1-0.4-0.3l-1.8-3.7h-2.4v3.7c0,0.2-0.1,0.3-0.3,0.3h-1.7
				C376.2,126.4,376.1,126.3,376.1,126.1z M380.8,116.9h-2.4v3.5h2.4c0.5,0,1-0.2,1.3-0.5c0.4-0.3,0.5-0.7,0.5-1.2
				c0-0.2,0-0.5-0.1-0.7c-0.1-0.2-0.2-0.4-0.4-0.6c-0.2-0.2-0.4-0.3-0.6-0.4C381.3,116.9,381,116.9,380.8,116.9z"/>
			<path class="st2" d="M394,126.1v-4.5l-3.7-6.3c-0.1-0.1-0.1-0.2,0-0.3c0-0.1,0.1-0.1,0.2-0.1h1.9c0.2,0,0.3,0.1,0.4,0.3l2.3,4.5
				l2.3-4.5c0.1-0.2,0.2-0.3,0.4-0.3h1.9c0.1,0,0.2,0,0.2,0.1c0,0.1,0,0.1,0,0.3l-3.7,6.3v4.5c0,0.2-0.1,0.3-0.3,0.3h-1.7
				C394.1,126.4,394,126.3,394,126.1z"/>
		</g>
	</g>
</g>
</svg>
